<?xml version="1.0" encoding="utf-8"?><!-- Uploaded to: SVG Repo, www.svgrepo.com, Generator: SVG Repo Mixer Tools -->
<svg fill="#000000" width="800px" height="800px" viewBox="0 0 24 24" id="clipboard-edit-left-3" data-name="Flat Line" xmlns="http://www.w3.org/2000/svg" class="icon flat-line"><path id="secondary" d="M20,6H17V8H11V6H8A1,1,0,0,0,7,7v3.2l4,4V17H8.2L7,15.8V20a1,1,0,0,0,1,1H20a1,1,0,0,0,1-1V7A1,1,0,0,0,20,6Z" style="fill: rgb(44, 169, 188); stroke-width: 2;"></path><path id="primary" d="M7,10V7A1,1,0,0,1,8,6h3" style="fill: none; stroke: rgb(0, 0, 0); stroke-linecap: round; stroke-linejoin: round; stroke-width: 2;"></path><path id="primary-2" data-name="primary" d="M17,6h3a1,1,0,0,1,1,1V20a1,1,0,0,1-1,1H8a1,1,0,0,1-1-1V16" style="fill: none; stroke: rgb(0, 0, 0); stroke-linecap: round; stroke-linejoin: round; stroke-width: 2;"></path><path id="primary-3" data-name="primary" d="M11,6V8h6V6a1,1,0,0,0-1-1h0a2,2,0,0,0-2-2h0a2,2,0,0,0-2,2h0A1,1,0,0,0,11,6ZM3.29,12.09,8.2,17H11V14.2L6.09,9.29a1,1,0,0,0-1.4,0l-1.4,1.4A1,1,0,0,0,3.29,12.09Z" style="fill: none; stroke: rgb(0, 0, 0); stroke-linecap: round; stroke-linejoin: round; stroke-width: 2;"></path></svg>